# xmcd
#
# Track frame offsets:
#	150
#	15163
#	27226
#	40962
#	53721
#	69163
#	81356
#	93352
#	104150
#	117696
#	128171
#	139586
#	153379
#	166021
#	180096
#	194541
#	207084
#	219598
#	233020
#	245726
#
# Disc length: 3414 seconds
#
# Revision: 10
# Processed by: cddbd v1.5.2PL0 Copyright (c) Steve Scherf et al.
# Submitted via: audiograbber 1.83.01
#
DISCID=0b0d5414
DTITLE=Django Reinhardt - Djangology 05
DYEAR=1940
DGENRE=Jazz
TTITLE0=Django Reinhardt - Swing 39 (Reinhardt - Grappelly)
TTITLE1=Django Reinhardt - Japanese Sandman (Whiting)
TTITLE2=Django Reinhardt - I Wonder Where My Baby Is Tonight (Donaldson)
TTITLE3=Django Reinhardt - Tea For Two (Caesar - Youmans)
TTITLE4=Django Reinhardt - My Melancholy Baby (Burnett - Norton)
TTITLE5=Django Reinhardt - Time On My Hands (Youmans - Adamson - Gordon)
TTITLE6=Django Reinhardt - Twelfth Year (Reinhardt - Grappelly)
TTITLE7=Django Reinhardt - Montmartre (Stewart)
TTITLE8=Django Reinhardt - Low Cotton (Stewart)
TTITLE9=Django Reinhardt - Finesse (Taylor)
TTITLE10=Django Reinhardt - I Know That You Know (Youmams - Caldwell)
TTITLE11=Django Reinhardt - Solid Old Man (Stewart - Taylor)
TTITLE12=Django Reinhardt - My Melancholy Baby - Part 2 (Burnett - Norton)
TTITLE13=Django Reinhardt - Japanese Sandman - Part 2 (Egan - Whiting)
TTITLE14=Django Reinhardt - Tea For Two - Part 2 (Caesar - Youmans)
TTITLE15=Django Reinhardt - I Wonder Where My Baby Is Tonight - Part 2 (Kahn - 
TTITLE15=Donaldson)
TTITLE16=Django Reinhardt - Hungaria (Reinhardt - Grappelly)
TTITLE17=Django Reinhardt - The Sheik Of Araby (Snyder - Wheeler - Smith)
TTITLE18=Django Reinhardt - Dream Ship (Romans)
TTITLE19=Django Reinhardt - I Can't Believe That You're In Love With Me (Gaskil
TTITLE19=l McHugh)
EXTD=
EXTT0=
EXTT1=
EXTT2=
EXTT3=
EXTT4=
EXTT5=
EXTT6=
EXTT7=
EXTT8=
EXTT9=
EXTT10=
EXTT11=
EXTT12=
EXTT13=
EXTT14=
EXTT15=
EXTT16=
EXTT17=
EXTT18=
EXTT19=
PLAYORDER=
